<?xml version="1.0" encoding="utf-8"?>
<!-- Generator: Adobe Illustrator 23.0.0, SVG Export Plug-In . SVG Version: 6.00 Build 0)  -->
<svg version="1.1" id="Layer_1" xmlns="http://www.w3.org/2000/svg" xmlns:xlink="http://www.w3.org/1999/xlink" x="0px" y="0px"
	 viewBox="0 0 231.41 178.25" style="enable-background:new 0 0 231.41 178.25;" xml:space="preserve">
<style type="text/css">
	.st0{fill:#FFFFFF;}
</style>
<g>
	<path class="st0" d="M231.41,178.25H0V0h231.41V178.25z M3.51,174.74H227.9V3.51H3.51V174.74z"/>
</g>
<path class="st0" d="M25.96,144.16h4.29v-3.48H18.25v3.48h4.26v15.6h3.46V144.16L25.96,144.16z M41.16,159.76h3.91l-3.75-7.88
	c2.36-1.13,2.87-3.59,2.87-4.96v-0.83c0-1.74-0.91-5.41-5.55-5.41h-5.98v19.08h3.48v-7.4h1.58L41.16,159.76L41.16,159.76z
	 M40.68,146.17v0.72c0,1.8-1.29,2.04-2.04,2.04h-2.49v-4.8h2.44C39.34,144.13,40.68,144.4,40.68,146.17L40.68,146.17z M51.13,140.68
	h-3.49v19.08h3.49V140.68L51.13,140.68z M54.99,159.76h11.04v-3.46h-7.58v-4.85h7.02v-3.46h-7.02v-3.86h7.58v-3.46H54.99V159.76
	L54.99,159.76z M77.26,159.76h3.4v-19.08h-3.43v11.26l-4.69-11.26h-3.46v19.08h3.48V148.9L77.26,159.76L77.26,159.76z M92.7,159.76
	h3.4v-19.08h-3.43v11.26l-4.69-11.26h-3.46v19.08h3.48V148.9L92.7,159.76L92.7,159.76z M103.45,140.68h-3.49v19.08h3.49V140.68
	L103.45,140.68z M116.66,159.76h3.57l-5.09-19.08h-4.29l-5.01,19.08h3.59l1.13-4.37h4.99L116.66,159.76L116.66,159.76z
	 M113.07,145.23l1.61,6.73h-3.3L113.07,145.23L113.07,145.23z M122.61,159.76h11.02v-3.46h-7.56v-15.62h-3.46V159.76L122.61,159.76z
	"/>
<path class="st0" d="M29.05,131.48h3.56l-5.09-19.08h-4.29l-5.01,19.08h3.59l1.13-4.37h4.98L29.05,131.48L29.05,131.48z
	 M25.45,116.95l1.61,6.73h-3.3L25.45,116.95L25.45,116.95z M43.49,131.48h3.91l-3.75-7.88c2.36-1.13,2.87-3.59,2.87-4.96v-0.83
	c0-1.74-0.91-5.41-5.55-5.41H35v19.08h3.48v-7.4h1.58L43.49,131.48L43.49,131.48z M43.01,117.89v0.72c0,1.8-1.29,2.04-2.04,2.04
	h-2.49v-4.8h2.44C41.67,115.86,43.01,116.12,43.01,117.89L43.01,117.89z M61.21,125.69H57.7c0,2.22-1.53,2.55-2.22,2.55
	c-0.75,0-2.31-0.27-2.31-2.2v-8.2c0-1.9,1.55-2.14,2.31-2.14c0.7,0,2.22,0.32,2.22,2.49h3.51c0-1.96-1.31-5.92-5.73-5.92
	c-4.61,0-5.76,3.62-5.76,5.39v8.52c0,1.82,1.26,5.55,5.74,5.55C60,131.72,61.21,128.02,61.21,125.69L61.21,125.69z M72.6,131.48
	h3.51V112.4H72.6v7.37h-4.82v-7.37h-3.48v19.08h3.48v-8.23h4.82V131.48L72.6,131.48z M83.45,112.4h-3.48v19.08h3.48V112.4
	L83.45,112.4z M93.58,115.88h4.29v-3.48H85.86v3.48h4.26v15.6h3.46V115.88L93.58,115.88z M100.28,131.48h11.04v-3.46h-7.59v-4.85
	h7.02v-3.46h-7.02v-3.86h7.59v-3.46h-11.04V131.48L100.28,131.48z M125.61,125.69h-3.51c0,2.22-1.53,2.55-2.22,2.55
	c-0.75,0-2.3-0.27-2.3-2.2v-8.2c0-1.9,1.55-2.14,2.3-2.14c0.7,0,2.22,0.32,2.22,2.49h3.51c0-1.96-1.31-5.92-5.73-5.92
	c-4.61,0-5.76,3.62-5.76,5.39v8.52c0,1.82,1.26,5.55,5.73,5.55C124.4,131.72,125.61,128.02,125.61,125.69L125.61,125.69z
	 M134.96,115.88h4.29v-3.48h-12.01v3.48h4.26v15.6h3.46V115.88L134.96,115.88z M152.89,126.2v-13.8h-3.48v13.78
	c0,1.79-1.53,2.06-2.25,2.06c-0.75,0-2.28-0.27-2.28-2.06V112.4h-3.48v13.78c0,1.93,1.15,5.55,5.76,5.55
	C151.77,131.72,152.89,128.13,152.89,126.2L152.89,126.2z M164.98,131.48h3.91l-3.75-7.88c2.36-1.13,2.87-3.59,2.87-4.96v-0.83
	c0-1.74-0.91-5.41-5.55-5.41h-5.98v19.08h3.48v-7.4h1.58L164.98,131.48L164.98,131.48z M164.5,117.89v0.72
	c0,1.8-1.29,2.04-2.04,2.04h-2.49v-4.8h2.44C163.16,115.86,164.5,116.12,164.5,117.89L164.5,117.89z M171.47,131.48h11.04v-3.46
	h-7.58v-4.85h7.02v-3.46h-7.02v-3.86h7.58v-3.46h-11.04V131.48L171.47,131.48z"/>
<path class="st0" d="M30.82,97.92c0-2.25-1.07-4.05-3.11-5.15c-0.72-0.4-1.61-0.83-3.91-2.01c-0.72-0.38-1.13-0.91-1.13-1.55
	c0-1.18,0.96-1.82,2.14-1.82c1.31,0,2.28,0.88,2.28,2.47h3.51c0-3.4-2.36-5.9-5.79-5.9c-3.3,0-5.6,2.14-5.6,5.2
	c0,2.01,1.18,3.78,2.73,4.56c2.12,1.07,3.4,1.72,4.13,2.15c0.75,0.43,1.31,1.04,1.31,2.01c0,1.23-1.02,2.12-2.63,2.12
	c-1.37,0-2.38-0.91-2.38-2.57h-3.46c0,3.43,2.3,6.03,5.87,6.03C28.19,103.44,30.82,101.11,30.82,97.92L30.82,97.92z M42.21,103.2
	h3.51V84.12h-3.51v7.37h-4.82v-7.37H33.9v19.08h3.48v-8.23h4.82V103.2L42.21,103.2z M58.93,103.2h3.57L57.4,84.12h-4.29L48.1,103.2
	h3.59l1.12-4.37h4.99L58.93,103.2L58.93,103.2z M55.34,88.68l1.61,6.73h-3.3L55.34,88.68L55.34,88.68z M73.38,103.2h3.91l-3.75-7.88
	c2.36-1.13,2.87-3.59,2.87-4.96v-0.83c0-1.74-0.91-5.41-5.55-5.41h-5.98v19.08h3.48v-7.4h1.58L73.38,103.2L73.38,103.2z
	 M72.89,89.62v0.72c0,1.79-1.29,2.04-2.04,2.04h-2.49v-4.8h2.44C71.55,87.58,72.89,87.85,72.89,89.62L72.89,89.62z M88.76,97.95
	V84.12h-8.68v3.46h5.23v10.53c0,1.55-1.02,1.85-1.77,1.85c-0.78,0-1.8-0.38-1.8-2.52h-3.48c0,3.56,1.93,6,5.25,6
	C86.86,103.44,88.76,101.41,88.76,97.95L88.76,97.95z M101.84,103.2h3.57l-5.09-19.08h-4.29l-5.01,19.08h3.59l1.13-4.37h4.99
	L101.84,103.2L101.84,103.2z M98.25,88.68l1.61,6.73h-3.3L98.25,88.68L98.25,88.68z M116.1,103.2h3.51V84.12h-3.51v7.37h-4.82v-7.37
	h-3.48v19.08h3.48v-8.23h4.82V103.2L116.1,103.2z"/>
<g>
	<path class="st0" d="M24.73,52.38c1.12,0,2.09-0.64,2.09-1.9c0-1.13-0.91-1.9-2.09-1.9c-1.18,0-2.09,0.78-2.09,1.9
		C22.64,51.73,23.63,52.38,24.73,52.38z"/>
	<path class="st0" d="M28.7,55.81h-0.83c-5.28,0-8.76,3.03-8.76,7.58v0.03c0,4.53,3.35,7.53,8.31,7.53h4.74V54.47H28.7V55.81z
		 M28.7,67.52h-1.55c-2.76,0-4.74-1.55-4.74-4.1v-0.03c0-2.63,1.96-4.18,4.74-4.18h1.55V67.52z"/>
	<path class="st0" d="M30.15,48.57c-1.18,0-2.09,0.78-2.09,1.9c0,1.26,0.99,1.9,2.09,1.9c1.12,0,2.09-0.64,2.09-1.9
		C32.24,49.35,31.35,48.57,30.15,48.57z"/>
	<path class="st0" d="M103.82,67.52h-3.48h-0.8h-2.36V49.21h-3.4v18.31h-2.36h-0.54h-4.39l3.32-8.79c-2.55-2.2-5.25-3.46-8.33-3.46
		c-3.03,0-5.84,1.26-8.31,3.43l3.4,8.82h-3.89h-0.56h-2.14c0.08-0.51,0.13-1.07,0.13-1.64v-0.03c0-4.93-3.08-8.23-7.61-8.23h-0.03
		c-4.56,0-7.64,3.3-7.64,8.23v0.03c0,0.56,0.05,1.13,0.13,1.64H53.3h-0.54h-3.99V49.21h-3.46v21.74h7.45h0.54h3.05
		c1.31,1.85,3.46,2.95,6.11,2.95h0.03c2.63,0,4.77-1.1,6.08-2.95h3.54h0.56h18.2h0.54h8.12h0.8h6.94V49.21h-3.46V67.52z M66.65,65.8
		c0,2.79-1.66,4.66-4.15,4.66h-0.03c-2.49,0-4.18-1.85-4.18-4.66v-0.03c0-2.84,1.69-4.72,4.18-4.72h0.03c2.49,0,4.15,1.88,4.15,4.72
		V65.8z M83.1,67.52h-3.32l-2.76-7.08c1.45-1.15,2.97-1.74,4.45-1.74c1.55,0,3.05,0.59,4.45,1.74L83.1,67.52z"/>
	<path class="st0" d="M37.92,70.9c0,2.12-0.96,2.84-2.55,2.84c-0.56,0-1.18-0.11-1.9-0.32v3.03c0.83,0.27,1.61,0.4,2.28,0.4
		c3.75,0,5.65-1.45,5.65-6.51V55.81h-3.48V70.9z"/>
</g>
<path class="st0" d="M17.76,41.24c1.61,1.61,4.1,2.39,7.42,2.39h9.65V31.76c-0.03-2.06,1.05-3.43,3.27-3.43h2.14v11.93h6.59v-3.43
	h-3.11V25.11h-5.01c-4.74,0-7.37,2.36-7.37,7.26v7.83h-6.51c-2.04,0-3.65-0.56-5.15-1.8L17.76,41.24L17.76,41.24z M26.1,29.13
	c-1.18,0-2.09,0.78-2.09,1.9c0,1.26,0.99,1.9,2.09,1.9c1.12,0,2.09-0.64,2.09-1.9C28.19,29.91,27.28,29.13,26.1,29.13L26.1,29.13z
	 M26.1,34.2c-1.18,0-2.09,0.78-2.09,1.9c0,1.26,0.99,1.9,2.09,1.9c1.12,0,2.09-0.64,2.09-1.9C28.19,34.97,27.28,34.2,26.1,34.2
	L26.1,34.2z M53.78,18.52h-3.46v18.31h-4.29v3.43h7.75V18.52L53.78,18.52z M65.74,36.82h-4.53V18.52h-3.46v21.74h7.99V36.82
	L65.74,36.82z M69.57,22.27c1.13,0,2.12-0.64,2.12-1.96c0-1.18-0.94-1.96-2.12-1.96c-1.23,0-2.17,0.78-2.17,1.96
	C67.4,21.63,68.42,22.27,69.57,22.27L69.57,22.27z M74.39,36.82h-3.14V25.11H67.8v11.71h-2.6v3.43h9.19V36.82L74.39,36.82z
	 M73.86,36.82v3.43h8.68V25.11h-3.46v11.71H73.86L73.86,36.82z M75.6,46.58c1.13,0,2.06-0.64,2.06-1.9c0-1.13-0.89-1.9-2.06-1.9
	c-1.18,0-2.09,0.78-2.09,1.9C73.51,45.93,74.5,46.58,75.6,46.58L75.6,46.58z M81.01,46.58c1.13,0,2.04-0.64,2.04-1.9
	c0-1.13-0.83-1.9-2.04-1.9c-1.18,0-2.06,0.78-2.06,1.9C78.95,45.93,79.91,46.58,81.01,46.58L81.01,46.58z M94.81,40.25v-3.43h-3
	V25.11h-3.49V40.2c0,2.12-0.96,2.84-2.41,2.84c-0.4,0-0.99-0.11-1.37-0.27l-0.29,3c0.54,0.21,1.26,0.38,2.01,0.38
	c3.48,0,5.39-1.34,5.55-5.9H94.81L94.81,40.25z M98.67,22.35c1.12,0,2.09-0.64,2.09-1.9c0-1.13-0.91-1.9-2.09-1.9
	c-1.18,0-2.09,0.78-2.09,1.9C96.58,21.71,97.58,22.35,98.67,22.35L98.67,22.35z M104.09,22.35c1.13,0,2.09-0.64,2.09-1.9
	c0-1.13-0.89-1.9-2.09-1.9c-1.18,0-2.09,0.78-2.09,1.9C102,21.71,102.99,22.35,104.09,22.35L104.09,22.35z M94.28,36.82v3.43h8.68
	V25.11H99.5v11.71H94.28L94.28,36.82z"/>
<path class="st0" d="M139.44,53.07c1.13,0,2.09-0.64,2.09-1.9c0-1.13-0.91-1.9-2.09-1.9s-2.09,0.78-2.09,1.9
	C137.35,52.43,138.34,53.07,139.44,53.07z"/>
<path class="st0" d="M121.08,52.38c1.13,0,2.09-0.64,2.09-1.9c0-1.13-0.91-1.9-2.09-1.9c-1.18,0-2.09,0.78-2.09,1.9
	C118.99,51.73,119.98,52.38,121.08,52.38z"/>
<path class="st0" d="M178.94,54.95c1.07,0,1.98-0.62,1.98-1.85c0-1.07-0.78-1.77-1.98-1.77c-1.13,0-2.01,0.67-2.01,1.77
	C176.93,54.33,177.9,54.95,178.94,54.95z"/>
<path class="st0" d="M182.27,53.1c0,1.23,0.89,1.85,1.96,1.85c1.07,0,2.01-0.62,2.01-1.85c0-1.1-0.86-1.77-2.01-1.77
	C183.04,51.33,182.27,52.03,182.27,53.1z"/>
<path class="st0" d="M181.6,50.93c0.94,0,1.8-0.54,1.8-1.61c0-0.94-0.78-1.58-1.8-1.58s-1.8,0.64-1.8,1.58
	C179.8,50.39,180.68,50.93,181.6,50.93z"/>
<path class="st0" d="M126.55,52.38c1.12,0,2.09-0.64,2.09-1.9c0-1.13-0.88-1.9-2.09-1.9c-1.18,0-2.09,0.78-2.09,1.9
	C124.46,51.73,125.45,52.38,126.55,52.38z"/>
<path class="st0" d="M144.91,49.27c-1.18,0-2.09,0.78-2.09,1.9c0,1.26,0.99,1.9,2.09,1.9c1.12,0,2.09-0.64,2.09-1.9
	C147,50.05,146.11,49.27,144.91,49.27z"/>
<path class="st0" d="M152.14,70.9c0,2.12-0.96,2.84-2.55,2.84c-0.56,0-1.18-0.11-1.9-0.32v3.03c0.83,0.27,1.61,0.4,2.28,0.4
	c3.75,0,5.66-1.45,5.66-6.51V55.81h-3.48V70.9z"/>
<path class="st0" d="M133.33,63.39v0.03c0,1.58,0.4,2.95,1.13,4.1h-2.81h-0.54h-2.57V54.47h-3.46v1.34h-0.83
	c-5.28,0-8.76,3.03-8.76,7.58v0.03c0,4.53,3.35,7.53,8.31,7.53h7.32h0.54h14.74V55.81h-4.29C136.81,55.81,133.33,58.84,133.33,63.39
	z M125.07,67.52h-1.55c-2.76,0-4.74-1.55-4.74-4.1v-0.03c0-2.63,1.96-4.18,4.74-4.18h1.55V67.52z M142.92,67.52h-1.55
	c-2.76,0-4.74-1.55-4.74-4.1v-0.03c0-2.63,1.96-4.18,4.74-4.18h1.55V67.52z"/>
<rect x="209.36" y="49.21" class="st0" width="3.46" height="21.74"/>
<path class="st0" d="M201.54,67.52h-3.48c-2.71,0-4.1-1.37-4.1-4.32v-7.56h-3.48v8.28c0,2.57-1.31,3.86-3.56,3.86
	c-2.14,0-3.54-1.39-3.54-3.62v-6.54h-3.48v6.08c0,2.81-2.04,3.81-4.02,3.81h-2.15v-9.89h-3.46v9.89h-2.73h-0.54H163V49.21h-3.46
	v21.74h7.45h0.54h8.36c2.57,0,4.45-1.02,5.49-2.79c0.86,1.93,2.95,3.06,5.52,3.06c2.84,0,4.8-0.91,5.9-2.71
	c0.79,1.38,2.32,2.44,4.45,2.44l0,0h7.74V49.21h-3.46V67.52z"/>
</svg>
